<svg width="560" height="846" viewBox="0 0 560 846" fill="none" xmlns="http://www.w3.org/2000/svg">
<g filter="url(#filter0_d_12_452)">
<rect x="80" y="50" width="399.533" height="685.39" rx="40" fill="url(#paint0_linear_12_452)" shape-rendering="crispEdges"/>
<rect x="96" y="66" width="367.533" height="653.39" rx="30" fill="#1A1A1A"/>
<path d="M121.011 117V105.364H128.852V107.392H123.472V110.165H128.449V112.193H123.472V114.972H128.875V117H121.011ZM133.183 111.955V117H130.763V108.273H133.07V109.812H133.172C133.365 109.305 133.689 108.903 134.143 108.608C134.598 108.309 135.149 108.159 135.797 108.159C136.403 108.159 136.931 108.292 137.382 108.557C137.833 108.822 138.183 109.201 138.433 109.693C138.683 110.182 138.808 110.765 138.808 111.443V117H136.388V111.875C136.392 111.341 136.255 110.924 135.979 110.625C135.702 110.322 135.321 110.17 134.837 110.17C134.511 110.17 134.223 110.241 133.973 110.381C133.727 110.521 133.534 110.725 133.393 110.994C133.257 111.259 133.187 111.58 133.183 111.955ZM144.648 120.455C143.864 120.455 143.191 120.347 142.631 120.131C142.074 119.919 141.631 119.629 141.301 119.261C140.972 118.894 140.758 118.481 140.659 118.023L142.898 117.722C142.966 117.896 143.074 118.059 143.222 118.21C143.369 118.362 143.564 118.483 143.807 118.574C144.053 118.669 144.352 118.716 144.705 118.716C145.231 118.716 145.665 118.587 146.006 118.33C146.35 118.076 146.523 117.65 146.523 117.051V115.455H146.42C146.314 115.697 146.155 115.926 145.943 116.142C145.731 116.358 145.458 116.534 145.125 116.67C144.792 116.807 144.394 116.875 143.932 116.875C143.277 116.875 142.68 116.723 142.142 116.42C141.608 116.114 141.182 115.646 140.864 115.017C140.549 114.384 140.392 113.585 140.392 112.619C140.392 111.631 140.553 110.805 140.875 110.142C141.197 109.479 141.625 108.983 142.159 108.653C142.697 108.324 143.286 108.159 143.926 108.159C144.415 108.159 144.824 108.242 145.153 108.409C145.483 108.572 145.748 108.777 145.949 109.023C146.153 109.265 146.311 109.504 146.42 109.739H146.511V108.273H148.915V117.085C148.915 117.828 148.733 118.449 148.369 118.949C148.006 119.449 147.502 119.824 146.858 120.074C146.218 120.328 145.481 120.455 144.648 120.455ZM144.699 115.057C145.089 115.057 145.419 114.96 145.688 114.767C145.96 114.57 146.169 114.29 146.312 113.926C146.46 113.559 146.534 113.119 146.534 112.608C146.534 112.097 146.462 111.653 146.318 111.278C146.174 110.9 145.966 110.606 145.693 110.398C145.42 110.189 145.089 110.085 144.699 110.085C144.301 110.085 143.966 110.193 143.693 110.409C143.42 110.621 143.214 110.917 143.074 111.295C142.934 111.674 142.864 112.112 142.864 112.608C142.864 113.112 142.934 113.547 143.074 113.915C143.218 114.278 143.424 114.561 143.693 114.761C143.966 114.958 144.301 115.057 144.699 115.057ZM150.841 117V108.273H153.261V117H150.841ZM152.057 107.148C151.697 107.148 151.388 107.028 151.131 106.79C150.877 106.547 150.75 106.258 150.75 105.92C150.75 105.587 150.877 105.301 151.131 105.062C151.388 104.82 151.697 104.699 152.057 104.699C152.417 104.699 152.723 104.82 152.977 105.062C153.235 105.301 153.364 105.587 153.364 105.92C153.364 106.258 153.235 106.547 152.977 106.79C152.723 107.028 152.417 107.148 152.057 107.148ZM155.246 117V105.364H159.837C160.719 105.364 161.471 105.532 162.092 105.869C162.714 106.203 163.187 106.667 163.513 107.261C163.842 107.852 164.007 108.534 164.007 109.307C164.007 110.08 163.84 110.761 163.507 111.352C163.174 111.943 162.691 112.403 162.058 112.733C161.429 113.062 160.668 113.227 159.774 113.227H156.848V111.256H159.376C159.85 111.256 160.24 111.174 160.547 111.011C160.857 110.845 161.089 110.616 161.24 110.324C161.395 110.028 161.473 109.689 161.473 109.307C161.473 108.92 161.395 108.583 161.24 108.295C161.089 108.004 160.857 107.778 160.547 107.619C160.236 107.456 159.842 107.375 159.365 107.375H157.706V117H155.246ZM167.814 117.165C167.257 117.165 166.761 117.068 166.325 116.875C165.89 116.678 165.545 116.388 165.291 116.006C165.041 115.619 164.916 115.138 164.916 114.562C164.916 114.078 165.005 113.67 165.183 113.341C165.361 113.011 165.604 112.746 165.911 112.545C166.217 112.345 166.566 112.193 166.956 112.091C167.35 111.989 167.763 111.917 168.195 111.875C168.702 111.822 169.111 111.773 169.422 111.727C169.732 111.678 169.958 111.606 170.098 111.511C170.238 111.417 170.308 111.277 170.308 111.091V111.057C170.308 110.697 170.195 110.419 169.967 110.222C169.744 110.025 169.426 109.926 169.013 109.926C168.577 109.926 168.231 110.023 167.973 110.216C167.715 110.405 167.545 110.644 167.462 110.932L165.223 110.75C165.337 110.22 165.56 109.761 165.893 109.375C166.227 108.985 166.657 108.686 167.183 108.477C167.714 108.265 168.327 108.159 169.024 108.159C169.509 108.159 169.973 108.216 170.416 108.33C170.863 108.443 171.259 108.619 171.604 108.858C171.952 109.097 172.227 109.403 172.428 109.778C172.628 110.15 172.729 110.595 172.729 111.114V117H170.433V115.79H170.365C170.225 116.062 170.037 116.303 169.803 116.511C169.568 116.716 169.286 116.877 168.956 116.994C168.626 117.108 168.246 117.165 167.814 117.165ZM168.507 115.494C168.863 115.494 169.178 115.424 169.45 115.284C169.723 115.14 169.937 114.947 170.092 114.705C170.248 114.462 170.325 114.187 170.325 113.881V112.955C170.25 113.004 170.145 113.049 170.013 113.091C169.884 113.129 169.738 113.165 169.575 113.199C169.412 113.229 169.25 113.258 169.087 113.284C168.924 113.307 168.776 113.328 168.643 113.347C168.359 113.388 168.111 113.455 167.899 113.545C167.687 113.636 167.522 113.759 167.405 113.915C167.287 114.066 167.229 114.256 167.229 114.483C167.229 114.812 167.348 115.064 167.587 115.239C167.829 115.409 168.136 115.494 168.507 115.494ZM175.788 120.273C175.482 120.273 175.194 120.248 174.925 120.199C174.66 120.153 174.44 120.095 174.266 120.023L174.811 118.216C175.095 118.303 175.351 118.35 175.578 118.358C175.809 118.366 176.008 118.313 176.175 118.199C176.345 118.085 176.483 117.892 176.589 117.619L176.732 117.25L173.601 108.273H176.146L177.953 114.682H178.044L179.868 108.273H182.43L179.038 117.943C178.875 118.413 178.654 118.822 178.374 119.17C178.097 119.523 177.747 119.794 177.322 119.983C176.898 120.176 176.387 120.273 175.788 120.273Z" fill="white"/>
<path d="M423.533 119.12H439.533V103.12H423.533V119.12Z" fill="white"/>
<rect x="120" y="156" width="319.533" height="123" rx="20" fill="url(#paint1_linear_12_452)"/>
<rect x="120.5" y="156.5" width="318.533" height="122" rx="19.5" stroke="#00BF63" stroke-opacity="0.3"/>
<path d="M145.695 187.652V186.527H153.55V187.652H150.257V197H148.989V187.652H145.695ZM157.395 197.164C156.686 197.164 156.064 196.995 155.529 196.657C154.997 196.32 154.581 195.848 154.281 195.241C153.985 194.634 153.836 193.925 153.836 193.114C153.836 192.295 153.985 191.581 154.281 190.971C154.581 190.361 154.997 189.887 155.529 189.549C156.064 189.212 156.686 189.043 157.395 189.043C158.105 189.043 158.725 189.212 159.257 189.549C159.792 189.887 160.208 190.361 160.505 190.971C160.805 191.581 160.955 192.295 160.955 193.114C160.955 193.925 160.805 194.634 160.505 195.241C160.208 195.848 159.792 196.32 159.257 196.657C158.725 196.995 158.105 197.164 157.395 197.164ZM157.395 196.08C157.934 196.08 158.377 195.941 158.725 195.665C159.073 195.389 159.33 195.026 159.497 194.576C159.664 194.126 159.748 193.639 159.748 193.114C159.748 192.589 159.664 192.099 159.497 191.646C159.33 191.193 159.073 190.826 158.725 190.547C158.377 190.267 157.934 190.127 157.395 190.127C156.857 190.127 156.414 190.267 156.066 190.547C155.718 190.826 155.461 191.193 155.294 191.646C155.127 192.099 155.043 192.589 155.043 193.114C155.043 193.639 155.127 194.126 155.294 194.576C155.461 195.026 155.718 195.389 156.066 195.665C156.414 195.941 156.857 196.08 157.395 196.08ZM166.213 189.145V190.168H162.142V189.145H166.213ZM163.329 187.264H164.535V194.75C164.535 195.091 164.585 195.347 164.684 195.517C164.786 195.684 164.915 195.797 165.072 195.855C165.233 195.909 165.401 195.936 165.579 195.936C165.712 195.936 165.821 195.93 165.906 195.916C165.991 195.899 166.059 195.885 166.11 195.875L166.356 196.959C166.274 196.99 166.16 197.02 166.013 197.051C165.867 197.085 165.681 197.102 165.456 197.102C165.115 197.102 164.781 197.029 164.454 196.882C164.13 196.736 163.86 196.513 163.646 196.213C163.434 195.913 163.329 195.534 163.329 195.077V187.264ZM170.339 197.184C169.842 197.184 169.39 197.09 168.984 196.903C168.579 196.712 168.256 196.438 168.018 196.08C167.779 195.718 167.66 195.282 167.66 194.77C167.66 194.32 167.748 193.956 167.926 193.676C168.103 193.393 168.34 193.172 168.637 193.011C168.933 192.851 169.26 192.732 169.618 192.653C169.98 192.572 170.343 192.507 170.708 192.459C171.185 192.398 171.572 192.352 171.868 192.321C172.168 192.287 172.387 192.231 172.523 192.152C172.663 192.074 172.733 191.937 172.733 191.743V191.702C172.733 191.198 172.594 190.806 172.318 190.526C172.046 190.247 171.631 190.107 171.076 190.107C170.5 190.107 170.048 190.233 169.721 190.485C169.393 190.738 169.163 191.007 169.03 191.293L167.885 190.884C168.089 190.407 168.362 190.035 168.703 189.769C169.047 189.5 169.422 189.312 169.828 189.207C170.237 189.098 170.639 189.043 171.035 189.043C171.287 189.043 171.577 189.074 171.904 189.135C172.235 189.193 172.554 189.314 172.86 189.498C173.171 189.682 173.428 189.96 173.633 190.332C173.837 190.703 173.939 191.201 173.939 191.825V197H172.733V195.936H172.671C172.589 196.107 172.453 196.289 172.262 196.484C172.071 196.678 171.817 196.843 171.5 196.98C171.183 197.116 170.796 197.184 170.339 197.184ZM170.523 196.1C171.001 196.1 171.403 196.006 171.73 195.819C172.061 195.631 172.31 195.389 172.477 195.093C172.647 194.796 172.733 194.484 172.733 194.157V193.052C172.681 193.114 172.569 193.17 172.395 193.221C172.225 193.269 172.027 193.311 171.802 193.349C171.58 193.383 171.364 193.414 171.152 193.441C170.944 193.465 170.776 193.485 170.646 193.502C170.333 193.543 170.039 193.61 169.767 193.702C169.497 193.79 169.279 193.925 169.112 194.106C168.948 194.283 168.867 194.525 168.867 194.832C168.867 195.251 169.022 195.568 169.332 195.783C169.646 195.994 170.043 196.1 170.523 196.1ZM177.349 186.527V197H176.142V186.527H177.349ZM183.773 197V186.527H187.434C188.164 186.527 188.765 186.653 189.239 186.906C189.713 187.155 190.066 187.49 190.298 187.913C190.53 188.332 190.646 188.798 190.646 189.309C190.646 189.759 190.565 190.131 190.405 190.424C190.248 190.717 190.04 190.949 189.781 191.119C189.526 191.29 189.248 191.416 188.948 191.498V191.6C189.268 191.62 189.59 191.733 189.914 191.938C190.238 192.142 190.509 192.435 190.727 192.817C190.946 193.199 191.055 193.666 191.055 194.218C191.055 194.743 190.935 195.215 190.697 195.635C190.458 196.054 190.081 196.386 189.567 196.632C189.052 196.877 188.382 197 187.557 197H183.773ZM185.041 195.875H187.557C188.385 195.875 188.973 195.715 189.321 195.394C189.672 195.07 189.848 194.678 189.848 194.218C189.848 193.864 189.758 193.536 189.577 193.236C189.396 192.933 189.139 192.691 188.805 192.51C188.471 192.326 188.075 192.234 187.618 192.234H185.041V195.875ZM185.041 191.13H187.393C187.775 191.13 188.119 191.055 188.426 190.905C188.737 190.755 188.982 190.543 189.163 190.27C189.347 189.998 189.439 189.677 189.439 189.309C189.439 188.849 189.279 188.459 188.958 188.138C188.638 187.814 188.13 187.652 187.434 187.652H185.041V191.13ZM195.286 197.184C194.788 197.184 194.337 197.09 193.931 196.903C193.525 196.712 193.203 196.438 192.965 196.08C192.726 195.718 192.607 195.282 192.607 194.77C192.607 194.32 192.695 193.956 192.873 193.676C193.05 193.393 193.287 193.172 193.583 193.011C193.88 192.851 194.207 192.732 194.565 192.653C194.927 192.572 195.29 192.507 195.654 192.459C196.132 192.398 196.519 192.352 196.815 192.321C197.115 192.287 197.333 192.231 197.47 192.152C197.61 192.074 197.679 191.937 197.679 191.743V191.702C197.679 191.198 197.541 190.806 197.265 190.526C196.992 190.247 196.578 190.107 196.023 190.107C195.446 190.107 194.995 190.233 194.667 190.485C194.34 190.738 194.11 191.007 193.977 191.293L192.832 190.884C193.036 190.407 193.309 190.035 193.65 189.769C193.994 189.5 194.369 189.312 194.775 189.207C195.184 189.098 195.586 189.043 195.982 189.043C196.234 189.043 196.524 189.074 196.851 189.135C197.182 189.193 197.5 189.314 197.807 189.498C198.117 189.682 198.375 189.96 198.579 190.332C198.784 190.703 198.886 191.201 198.886 191.825V197H197.679V195.936H197.618C197.536 196.107 197.4 196.289 197.209 196.484C197.018 196.678 196.764 196.843 196.447 196.98C196.13 197.116 195.743 197.184 195.286 197.184ZM195.47 196.1C195.948 196.1 196.35 196.006 196.677 195.819C197.008 195.631 197.257 195.389 197.424 195.093C197.594 194.796 197.679 194.484 197.679 194.157V193.052C197.628 193.114 197.516 193.17 197.342 193.221C197.171 193.269 196.974 193.311 196.749 193.349C196.527 193.383 196.311 193.414 196.099 193.441C195.891 193.465 195.723 193.485 195.593 193.502C195.279 193.543 194.986 193.61 194.713 193.702C194.444 193.79 194.226 193.925 194.059 194.106C193.895 194.283 193.813 194.525 193.813 194.832C193.813 195.251 193.969 195.568 194.279 195.783C194.592 195.994 194.99 196.1 195.47 196.1ZM202.296 186.527V197H201.089V186.527H202.296ZM206.817 197.184C206.32 197.184 205.868 197.09 205.462 196.903C205.057 196.712 204.735 196.438 204.496 196.08C204.257 195.718 204.138 195.282 204.138 194.77C204.138 194.32 204.227 193.956 204.404 193.676C204.581 193.393 204.818 193.172 205.115 193.011C205.411 192.851 205.738 192.732 206.096 192.653C206.458 192.572 206.821 192.507 207.186 192.459C207.663 192.398 208.05 192.352 208.346 192.321C208.646 192.287 208.865 192.231 209.001 192.152C209.141 192.074 209.211 191.937 209.211 191.743V191.702C209.211 191.198 209.073 190.806 208.796 190.526C208.524 190.247 208.11 190.107 207.554 190.107C206.978 190.107 206.526 190.233 206.199 190.485C205.871 190.738 205.641 191.007 205.508 191.293L204.363 190.884C204.567 190.407 204.84 190.035 205.181 189.769C205.525 189.5 205.9 189.312 206.306 189.207C206.715 189.098 207.117 189.043 207.513 189.043C207.765 189.043 208.055 189.074 208.382 189.135C208.713 189.193 209.032 189.314 209.338 189.498C209.649 189.682 209.906 189.96 210.111 190.332C210.315 190.703 210.417 191.201 210.417 191.825V197H209.211V195.936H209.149C209.067 196.107 208.931 196.289 208.74 196.484C208.549 196.678 208.295 196.843 207.978 196.98C207.661 197.116 207.274 197.184 206.817 197.184ZM207.002 196.1C207.479 196.1 207.881 196.006 208.208 195.819C208.539 195.631 208.788 195.389 208.955 195.093C209.125 194.796 209.211 194.484 209.211 194.157V193.052C209.16 193.114 209.047 193.17 208.873 193.221C208.703 193.269 208.505 193.311 208.28 193.349C208.058 193.383 207.842 193.414 207.631 193.441C207.423 193.465 207.254 193.485 207.124 193.502C206.811 193.543 206.517 193.61 206.245 193.702C205.975 193.79 205.757 193.925 205.59 194.106C205.427 194.283 205.345 194.525 205.345 194.832C205.345 195.251 205.5 195.568 205.81 195.783C206.124 195.994 206.521 196.1 207.002 196.1ZM213.827 192.275V197H212.62V189.145H213.786V190.373H213.888C214.072 189.974 214.352 189.653 214.727 189.411C215.102 189.166 215.586 189.043 216.179 189.043C216.711 189.043 217.176 189.152 217.575 189.37C217.974 189.585 218.284 189.913 218.506 190.352C218.728 190.789 218.838 191.341 218.838 192.009V197H217.632V192.091C217.632 191.474 217.471 190.993 217.151 190.649C216.83 190.301 216.391 190.127 215.832 190.127C215.446 190.127 215.102 190.211 214.799 190.378C214.499 190.545 214.262 190.789 214.088 191.109C213.914 191.43 213.827 191.818 213.827 192.275ZM224.235 197.164C223.498 197.164 222.864 196.99 222.332 196.642C221.8 196.294 221.391 195.815 221.105 195.205C220.819 194.595 220.675 193.898 220.675 193.114C220.675 192.316 220.822 191.612 221.115 191.002C221.412 190.388 221.824 189.909 222.353 189.565C222.885 189.217 223.505 189.043 224.214 189.043C224.766 189.043 225.264 189.145 225.707 189.35C226.15 189.555 226.513 189.841 226.796 190.209C227.079 190.577 227.255 191.007 227.323 191.498H226.116C226.024 191.14 225.82 190.823 225.503 190.547C225.189 190.267 224.766 190.127 224.235 190.127C223.764 190.127 223.352 190.25 222.997 190.495C222.646 190.737 222.371 191.08 222.174 191.523C221.979 191.963 221.882 192.48 221.882 193.073C221.882 193.68 221.978 194.208 222.169 194.658C222.363 195.108 222.636 195.457 222.987 195.706C223.341 195.955 223.757 196.08 224.235 196.08C224.548 196.08 224.833 196.025 225.088 195.916C225.344 195.807 225.561 195.65 225.738 195.445C225.915 195.241 226.041 194.995 226.116 194.709H227.323C227.255 195.173 227.086 195.59 226.817 195.962C226.551 196.33 226.198 196.623 225.758 196.841C225.322 197.056 224.814 197.164 224.235 197.164ZM232.381 197.164C231.624 197.164 230.971 196.997 230.422 196.663C229.877 196.325 229.456 195.855 229.159 195.251C228.866 194.644 228.719 193.939 228.719 193.134C228.719 192.33 228.866 191.62 229.159 191.007C229.456 190.39 229.868 189.909 230.396 189.565C230.928 189.217 231.549 189.043 232.258 189.043C232.667 189.043 233.071 189.111 233.47 189.248C233.869 189.384 234.232 189.606 234.559 189.913C234.886 190.216 235.147 190.618 235.341 191.119C235.536 191.62 235.633 192.237 235.633 192.97V193.482H229.578V192.439H234.406C234.406 191.995 234.317 191.6 234.14 191.252C233.966 190.905 233.717 190.63 233.393 190.429C233.073 190.228 232.694 190.127 232.258 190.127C231.777 190.127 231.361 190.247 231.01 190.485C230.662 190.72 230.395 191.027 230.207 191.406C230.02 191.784 229.926 192.19 229.926 192.623V193.318C229.926 193.911 230.028 194.414 230.233 194.827C230.441 195.236 230.729 195.548 231.097 195.763C231.465 195.974 231.893 196.08 232.381 196.08C232.698 196.08 232.984 196.035 233.24 195.947C233.499 195.855 233.722 195.718 233.91 195.538C234.097 195.353 234.242 195.125 234.344 194.852L235.51 195.18C235.387 195.575 235.181 195.923 234.891 196.223C234.602 196.519 234.244 196.751 233.817 196.918C233.391 197.082 232.912 197.164 232.381 197.164Z" fill="#A0A0A0"/>
<path d="M154.705 249.909V220.818H156.568V249.909H154.705ZM159.648 230.42C159.557 229.504 159.167 228.792 158.477 228.284C157.788 227.777 156.852 227.523 155.67 227.523C154.867 227.523 154.189 227.636 153.636 227.864C153.083 228.083 152.659 228.39 152.364 228.784C152.076 229.178 151.932 229.625 151.932 230.125C151.917 230.542 152.004 230.905 152.193 231.216C152.39 231.527 152.659 231.795 153 232.023C153.341 232.242 153.735 232.436 154.182 232.602C154.629 232.761 155.106 232.898 155.614 233.011L157.705 233.511C158.72 233.739 159.652 234.042 160.5 234.42C161.348 234.799 162.083 235.265 162.705 235.818C163.326 236.371 163.807 237.023 164.148 237.773C164.496 238.523 164.674 239.383 164.682 240.352C164.674 241.777 164.311 243.011 163.591 244.057C162.879 245.095 161.848 245.902 160.5 246.477C159.159 247.045 157.542 247.33 155.648 247.33C153.769 247.33 152.133 247.042 150.739 246.466C149.352 245.89 148.269 245.038 147.489 243.909C146.716 242.773 146.311 241.367 146.273 239.693H151.034C151.087 240.473 151.311 241.125 151.705 241.648C152.106 242.163 152.64 242.553 153.307 242.818C153.981 243.076 154.742 243.205 155.591 243.205C156.424 243.205 157.148 243.083 157.761 242.841C158.383 242.598 158.864 242.261 159.205 241.83C159.545 241.398 159.716 240.902 159.716 240.341C159.716 239.818 159.561 239.379 159.25 239.023C158.947 238.667 158.5 238.364 157.909 238.114C157.326 237.864 156.61 237.636 155.761 237.432L153.227 236.795C151.265 236.318 149.716 235.572 148.58 234.557C147.443 233.542 146.879 232.174 146.886 230.455C146.879 229.045 147.254 227.814 148.011 226.761C148.777 225.708 149.826 224.886 151.159 224.295C152.492 223.705 154.008 223.409 155.705 223.409C157.432 223.409 158.939 223.705 160.227 224.295C161.523 224.886 162.53 225.708 163.25 226.761C163.97 227.814 164.341 229.034 164.364 230.42H159.648ZM177.98 223.727V247H173.06V228.398H172.923L167.594 231.739V227.375L173.355 223.727H177.98ZM183.511 247V243.455L191.795 235.784C192.5 235.102 193.091 234.489 193.568 233.943C194.053 233.398 194.42 232.864 194.67 232.341C194.92 231.811 195.045 231.239 195.045 230.625C195.045 229.943 194.89 229.356 194.58 228.864C194.269 228.364 193.845 227.981 193.307 227.716C192.769 227.443 192.159 227.307 191.477 227.307C190.765 227.307 190.144 227.451 189.614 227.739C189.083 228.027 188.674 228.439 188.386 228.977C188.098 229.515 187.955 230.155 187.955 230.898H183.284C183.284 229.375 183.629 228.053 184.318 226.932C185.008 225.811 185.973 224.943 187.216 224.33C188.458 223.716 189.89 223.409 191.511 223.409C193.178 223.409 194.629 223.705 195.864 224.295C197.106 224.879 198.072 225.689 198.761 226.727C199.451 227.765 199.795 228.955 199.795 230.295C199.795 231.174 199.621 232.042 199.273 232.898C198.932 233.754 198.322 234.705 197.443 235.75C196.564 236.788 195.326 238.034 193.727 239.489L190.33 242.818V242.977H200.102V247H183.511ZM208.974 243.818L208.849 245.068C208.751 246.068 208.562 247.064 208.281 248.057C208.009 249.057 207.721 249.962 207.418 250.773C207.122 251.583 206.884 252.22 206.702 252.682H203.565C203.679 252.235 203.834 251.61 204.031 250.807C204.228 250.011 204.414 249.117 204.588 248.125C204.762 247.133 204.872 246.121 204.918 245.091L204.974 243.818H208.974ZM213.003 242.909V239.034L222.719 223.727H226.06V229.091H224.082L217.957 238.784V238.966H231.764V242.909H213.003ZM224.173 247V241.727L224.264 240.011V223.727H228.878V247H224.173ZM243.543 247.318C241.937 247.318 240.505 247.023 239.247 246.432C237.997 245.841 237.005 245.027 236.27 243.989C235.535 242.951 235.152 241.761 235.122 240.42H239.895C239.948 241.322 240.327 242.053 241.031 242.614C241.736 243.174 242.573 243.455 243.543 243.455C244.315 243.455 244.997 243.284 245.588 242.943C246.187 242.595 246.652 242.114 246.986 241.5C247.327 240.879 247.497 240.167 247.497 239.364C247.497 238.545 247.323 237.826 246.974 237.205C246.634 236.583 246.16 236.098 245.554 235.75C244.948 235.402 244.255 235.223 243.474 235.216C242.793 235.216 242.13 235.356 241.486 235.636C240.849 235.917 240.353 236.299 239.997 236.784L235.622 236L236.724 223.727H250.952V227.75H240.781L240.179 233.58H240.315C240.724 233.004 241.342 232.527 242.168 232.148C242.993 231.769 243.918 231.58 244.94 231.58C246.342 231.58 247.592 231.909 248.69 232.568C249.789 233.227 250.656 234.133 251.293 235.284C251.929 236.428 252.243 237.746 252.236 239.239C252.243 240.807 251.88 242.201 251.145 243.42C250.418 244.633 249.399 245.587 248.088 246.284C246.785 246.973 245.27 247.318 243.543 247.318ZM264.349 247.318C262.599 247.318 261.043 247.034 259.679 246.466C258.323 245.89 257.259 245.106 256.486 244.114C255.713 243.121 255.327 241.996 255.327 240.739C255.327 239.769 255.546 238.879 255.986 238.068C256.433 237.25 257.039 236.572 257.804 236.034C258.569 235.489 259.425 235.14 260.372 234.989V234.83C259.13 234.58 258.122 233.977 257.349 233.023C256.577 232.061 256.19 230.943 256.19 229.67C256.19 228.466 256.543 227.394 257.247 226.455C257.952 225.508 258.918 224.765 260.145 224.227C261.38 223.682 262.781 223.409 264.349 223.409C265.918 223.409 267.315 223.682 268.543 224.227C269.777 224.773 270.747 225.519 271.452 226.466C272.156 227.405 272.512 228.473 272.52 229.67C272.512 230.951 272.118 232.068 271.338 233.023C270.558 233.977 269.558 234.58 268.338 234.83V234.989C269.27 235.14 270.115 235.489 270.872 236.034C271.637 236.572 272.243 237.25 272.69 238.068C273.145 238.879 273.376 239.769 273.384 240.739C273.376 241.996 272.986 243.121 272.213 244.114C271.44 245.106 270.372 245.89 269.009 246.466C267.652 247.034 266.099 247.318 264.349 247.318ZM264.349 243.705C265.13 243.705 265.812 243.564 266.395 243.284C266.978 242.996 267.433 242.602 267.759 242.102C268.092 241.595 268.259 241.011 268.259 240.352C268.259 239.678 268.088 239.083 267.747 238.568C267.406 238.045 266.944 237.636 266.361 237.341C265.777 237.038 265.107 236.886 264.349 236.886C263.599 236.886 262.929 237.038 262.338 237.341C261.747 237.636 261.281 238.045 260.94 238.568C260.607 239.083 260.44 239.678 260.44 240.352C260.44 241.011 260.603 241.595 260.929 242.102C261.255 242.602 261.713 242.996 262.304 243.284C262.895 243.564 263.577 243.705 264.349 243.705ZM264.349 233.307C265.001 233.307 265.58 233.174 266.088 232.909C266.596 232.644 266.993 232.277 267.281 231.807C267.569 231.337 267.713 230.795 267.713 230.182C267.713 229.576 267.569 229.045 267.281 228.591C266.993 228.129 266.599 227.769 266.099 227.511C265.599 227.246 265.016 227.114 264.349 227.114C263.69 227.114 263.107 227.246 262.599 227.511C262.092 227.769 261.694 228.129 261.406 228.591C261.126 229.045 260.986 229.576 260.986 230.182C260.986 230.795 261.13 231.337 261.418 231.807C261.705 232.277 262.103 232.644 262.611 232.909C263.118 233.174 263.698 233.307 264.349 233.307ZM279.043 247.295C278.293 247.295 277.649 247.03 277.111 246.5C276.58 245.962 276.315 245.318 276.315 244.568C276.315 243.826 276.58 243.189 277.111 242.659C277.649 242.129 278.293 241.864 279.043 241.864C279.77 241.864 280.406 242.129 280.952 242.659C281.497 243.189 281.77 243.826 281.77 244.568C281.77 245.068 281.641 245.527 281.384 245.943C281.134 246.352 280.804 246.682 280.395 246.932C279.986 247.174 279.535 247.295 279.043 247.295ZM293.551 247.318C291.854 247.318 290.343 247.027 289.017 246.443C287.699 245.852 286.657 245.042 285.892 244.011C285.134 242.973 284.744 241.777 284.722 240.42H289.676C289.706 240.989 289.892 241.489 290.233 241.92C290.581 242.345 291.044 242.674 291.619 242.909C292.195 243.144 292.843 243.261 293.562 243.261C294.312 243.261 294.975 243.129 295.551 242.864C296.127 242.598 296.578 242.231 296.903 241.761C297.229 241.292 297.392 240.75 297.392 240.136C297.392 239.515 297.218 238.966 296.869 238.489C296.528 238.004 296.036 237.625 295.392 237.352C294.756 237.08 293.998 236.943 293.119 236.943H290.949V233.33H293.119C293.862 233.33 294.517 233.201 295.085 232.943C295.661 232.686 296.108 232.33 296.426 231.875C296.744 231.413 296.903 230.875 296.903 230.261C296.903 229.678 296.763 229.167 296.483 228.727C296.21 228.28 295.824 227.932 295.324 227.682C294.831 227.432 294.256 227.307 293.597 227.307C292.93 227.307 292.32 227.428 291.767 227.67C291.214 227.905 290.771 228.242 290.438 228.682C290.104 229.121 289.926 229.636 289.903 230.227H285.188C285.21 228.886 285.593 227.705 286.335 226.682C287.078 225.659 288.078 224.86 289.335 224.284C290.6 223.701 292.028 223.409 293.619 223.409C295.225 223.409 296.631 223.701 297.835 224.284C299.04 224.867 299.975 225.655 300.642 226.648C301.316 227.633 301.65 228.739 301.642 229.966C301.65 231.269 301.244 232.356 300.426 233.227C299.616 234.098 298.559 234.652 297.256 234.886V235.068C298.968 235.288 300.271 235.883 301.165 236.852C302.066 237.814 302.513 239.019 302.506 240.466C302.513 241.792 302.131 242.97 301.358 244C300.593 245.03 299.536 245.841 298.188 246.432C296.839 247.023 295.294 247.318 293.551 247.318ZM306.043 247V243.455L314.327 235.784C315.031 235.102 315.622 234.489 316.099 233.943C316.584 233.398 316.952 232.864 317.202 232.341C317.452 231.811 317.577 231.239 317.577 230.625C317.577 229.943 317.421 229.356 317.111 228.864C316.8 228.364 316.376 227.981 315.838 227.716C315.3 227.443 314.69 227.307 314.009 227.307C313.296 227.307 312.675 227.451 312.145 227.739C311.615 228.027 311.205 228.439 310.918 228.977C310.63 229.515 310.486 230.155 310.486 230.898H305.815C305.815 229.375 306.16 228.053 306.849 226.932C307.539 225.811 308.505 224.943 309.747 224.33C310.99 223.716 312.421 223.409 314.043 223.409C315.709 223.409 317.16 223.705 318.395 224.295C319.637 224.879 320.603 225.689 321.293 226.727C321.982 227.765 322.327 228.955 322.327 230.295C322.327 231.174 322.152 232.042 321.804 232.898C321.463 233.754 320.853 234.705 319.974 235.75C319.096 236.788 317.857 238.034 316.259 239.489L312.861 242.818V242.977H322.634V247H306.043Z" fill="white"/>
<rect x="120" y="311" width="154" height="56" rx="15" fill="white" fill-opacity="0.05"/>
<rect x="120.5" y="311.5" width="153" height="55" rx="14.5" stroke="white" stroke-opacity="0.1"/>
<path d="M171.553 344.952H185.153V331.352H171.553V344.952ZM194.526 336.954C194.487 336.564 194.322 336.261 194.029 336.046C193.736 335.83 193.338 335.722 192.836 335.722C192.494 335.722 192.206 335.77 191.971 335.867C191.736 335.96 191.556 336.091 191.43 336.258C191.308 336.426 191.247 336.616 191.247 336.828C191.24 337.005 191.277 337.16 191.358 337.292C191.442 337.424 191.556 337.538 191.701 337.635C191.846 337.728 192.013 337.81 192.203 337.881C192.393 337.949 192.596 338.007 192.812 338.055L193.7 338.267C194.132 338.364 194.528 338.493 194.888 338.654C195.249 338.815 195.561 339.013 195.825 339.248C196.089 339.483 196.294 339.76 196.439 340.078C196.587 340.397 196.662 340.763 196.666 341.175C196.662 341.78 196.508 342.305 196.202 342.749C195.899 343.19 195.461 343.533 194.888 343.778C194.318 344.019 193.631 344.14 192.826 344.14C192.028 344.14 191.332 344.018 190.74 343.773C190.15 343.528 189.69 343.166 189.358 342.686C189.03 342.203 188.858 341.606 188.842 340.895H190.865C190.888 341.226 190.983 341.503 191.15 341.725C191.321 341.944 191.548 342.11 191.831 342.223C192.118 342.332 192.441 342.387 192.802 342.387C193.156 342.387 193.464 342.335 193.724 342.232C193.988 342.129 194.193 341.986 194.338 341.803C194.483 341.619 194.555 341.408 194.555 341.17C194.555 340.948 194.489 340.761 194.357 340.61C194.228 340.458 194.038 340.33 193.787 340.223C193.539 340.117 193.235 340.02 192.874 339.934L191.797 339.663C190.963 339.46 190.305 339.143 189.822 338.712C189.339 338.28 189.099 337.699 189.102 336.968C189.099 336.369 189.259 335.846 189.581 335.399C189.906 334.951 190.352 334.602 190.918 334.351C191.485 334.099 192.129 333.974 192.85 333.974C193.584 333.974 194.225 334.099 194.772 334.351C195.323 334.602 195.751 334.951 196.057 335.399C196.363 335.846 196.521 336.364 196.53 336.954H194.526ZM201.414 344.145C200.651 344.145 199.994 343.99 199.444 343.681C198.896 343.369 198.475 342.928 198.178 342.358C197.882 341.785 197.734 341.107 197.734 340.325C197.734 339.562 197.882 338.892 198.178 338.316C198.475 337.739 198.892 337.29 199.429 336.968C199.97 336.646 200.604 336.485 201.332 336.485C201.821 336.485 202.277 336.564 202.699 336.722C203.124 336.876 203.494 337.11 203.81 337.422C204.128 337.734 204.376 338.127 204.553 338.601C204.73 339.071 204.819 339.621 204.819 340.252V340.817H198.555V339.542H202.882C202.882 339.246 202.818 338.984 202.689 338.755C202.56 338.527 202.382 338.348 202.153 338.219C201.928 338.087 201.665 338.021 201.366 338.021C201.054 338.021 200.777 338.093 200.535 338.238C200.297 338.38 200.11 338.572 199.975 338.813C199.84 339.051 199.771 339.317 199.767 339.61V340.822C199.767 341.189 199.835 341.506 199.97 341.774C200.109 342.041 200.303 342.247 200.555 342.392C200.806 342.537 201.104 342.609 201.448 342.609C201.677 342.609 201.886 342.577 202.076 342.512C202.266 342.448 202.428 342.352 202.564 342.223C202.699 342.094 202.802 341.936 202.873 341.749L204.776 341.875C204.679 342.332 204.481 342.731 204.182 343.073C203.885 343.411 203.502 343.675 203.032 343.865C202.565 344.052 202.026 344.145 201.414 344.145ZM208.219 339.711V344H206.162V336.582H208.122V337.891H208.209C208.374 337.459 208.649 337.118 209.035 336.867C209.422 336.612 209.89 336.485 210.441 336.485C210.956 336.485 211.405 336.598 211.788 336.823C212.171 337.049 212.469 337.371 212.682 337.789C212.894 338.205 213 338.7 213 339.277V344H210.943V339.644C210.946 339.19 210.83 338.836 210.595 338.581C210.36 338.324 210.037 338.195 209.624 338.195C209.348 338.195 209.103 338.254 208.89 338.374C208.681 338.493 208.517 338.667 208.398 338.895C208.282 339.121 208.222 339.393 208.219 339.711ZM217.355 344.121C216.792 344.121 216.282 343.976 215.824 343.686C215.37 343.393 215.01 342.963 214.743 342.397C214.479 341.827 214.347 341.128 214.347 340.301C214.347 339.451 214.483 338.744 214.757 338.18C215.031 337.614 215.395 337.19 215.849 336.91C216.306 336.627 216.806 336.485 217.35 336.485C217.766 336.485 218.112 336.556 218.389 336.698C218.669 336.836 218.894 337.01 219.065 337.219C219.239 337.425 219.371 337.628 219.461 337.828H219.524V334.109H221.576V344H219.548V342.812H219.461C219.364 343.018 219.228 343.222 219.05 343.425C218.877 343.625 218.65 343.791 218.37 343.923C218.093 344.055 217.755 344.121 217.355 344.121ZM218.007 342.484C218.339 342.484 218.619 342.393 218.848 342.213C219.079 342.03 219.257 341.774 219.379 341.445C219.504 341.117 219.567 340.732 219.567 340.291C219.567 339.85 219.506 339.467 219.384 339.141C219.261 338.816 219.084 338.565 218.852 338.388C218.621 338.211 218.339 338.122 218.007 338.122C217.669 338.122 217.384 338.214 217.152 338.398C216.921 338.581 216.745 338.836 216.626 339.161C216.507 339.486 216.447 339.863 216.447 340.291C216.447 340.722 216.507 341.104 216.626 341.436C216.748 341.764 216.924 342.021 217.152 342.208C217.384 342.392 217.669 342.484 218.007 342.484Z" fill="white"/>
<rect x="286" y="311" width="154" height="56" rx="15" fill="white" fill-opacity="0.05"/>
<rect x="286.5" y="311.5" width="153" height="55" rx="14.5" stroke="white" stroke-opacity="0.1"/>
<path d="M328.323 344.952H341.923V331.352H328.323V344.952ZM345.93 344V334.109H349.832C350.579 334.109 351.217 334.243 351.745 334.51C352.276 334.774 352.68 335.149 352.957 335.635C353.237 336.118 353.377 336.686 353.377 337.34C353.377 337.997 353.235 338.562 352.952 339.035C352.669 339.505 352.258 339.866 351.721 340.117C351.186 340.368 350.539 340.494 349.779 340.494H347.166V338.813H349.441C349.84 338.813 350.172 338.758 350.436 338.649C350.7 338.539 350.896 338.375 351.025 338.156C351.157 337.937 351.223 337.665 351.223 337.34C351.223 337.012 351.157 336.735 351.025 336.509C350.896 336.284 350.698 336.113 350.431 335.997C350.167 335.878 349.834 335.819 349.431 335.819H348.021V344H345.93ZM351.271 339.499L353.73 344H351.421L349.016 339.499H351.271ZM358.077 344.145C357.314 344.145 356.658 343.99 356.107 343.681C355.56 343.369 355.138 342.928 354.842 342.358C354.545 341.785 354.397 341.107 354.397 340.325C354.397 339.562 354.545 338.892 354.842 338.316C355.138 337.739 355.555 337.29 356.093 336.968C356.633 336.646 357.268 336.485 357.995 336.485C358.485 336.485 358.94 336.564 359.362 336.722C359.787 336.876 360.157 337.11 360.473 337.422C360.792 337.734 361.04 338.127 361.217 338.601C361.394 339.071 361.482 339.621 361.482 340.252V340.817H355.218V339.542H359.546C359.546 339.246 359.481 338.984 359.352 338.755C359.224 338.527 359.045 338.348 358.816 338.219C358.591 338.087 358.329 338.021 358.029 338.021C357.717 338.021 357.44 338.093 357.199 338.238C356.96 338.38 356.774 338.572 356.638 338.813C356.503 339.051 356.434 339.317 356.431 339.61V340.822C356.431 341.189 356.498 341.506 356.633 341.774C356.772 342.041 356.967 342.247 357.218 342.392C357.469 342.537 357.767 342.609 358.111 342.609C358.34 342.609 358.549 342.577 358.739 342.512C358.929 342.448 359.092 342.352 359.227 342.223C359.362 342.094 359.465 341.936 359.536 341.749L361.439 341.875C361.342 342.332 361.144 342.731 360.845 343.073C360.549 343.411 360.165 343.675 359.695 343.865C359.229 344.052 358.689 344.145 358.077 344.145ZM366.177 344.145C365.417 344.145 364.763 343.984 364.216 343.662C363.672 343.337 363.253 342.886 362.96 342.31C362.67 341.733 362.525 341.07 362.525 340.32C362.525 339.56 362.672 338.894 362.965 338.32C363.261 337.744 363.681 337.295 364.225 336.973C364.77 336.648 365.417 336.485 366.167 336.485C366.814 336.485 367.381 336.603 367.867 336.838C368.353 337.073 368.738 337.403 369.021 337.828C369.305 338.253 369.461 338.752 369.49 339.325H367.548C367.493 338.955 367.349 338.657 367.114 338.432C366.882 338.203 366.577 338.089 366.201 338.089C365.882 338.089 365.604 338.176 365.365 338.349C365.13 338.52 364.947 338.77 364.815 339.098C364.683 339.426 364.617 339.824 364.617 340.291C364.617 340.764 364.681 341.167 364.81 341.498C364.942 341.83 365.127 342.083 365.365 342.257C365.604 342.43 365.882 342.517 366.201 342.517C366.436 342.517 366.647 342.469 366.833 342.372C367.023 342.276 367.18 342.136 367.302 341.952C367.427 341.766 367.51 341.542 367.548 341.281H369.49C369.458 341.848 369.303 342.347 369.026 342.778C368.752 343.206 368.374 343.541 367.891 343.783C367.408 344.024 366.837 344.145 366.177 344.145ZM374.188 344.145C373.425 344.145 372.768 343.99 372.217 343.681C371.67 343.369 371.248 342.928 370.952 342.358C370.656 341.785 370.508 341.107 370.508 340.325C370.508 339.562 370.656 338.892 370.952 338.316C371.248 337.739 371.665 337.29 372.203 336.968C372.744 336.646 373.378 336.485 374.106 336.485C374.595 336.485 375.051 336.564 375.472 336.722C375.897 336.876 376.268 337.11 376.583 337.422C376.902 337.734 377.15 338.127 377.327 338.601C377.504 339.071 377.592 339.621 377.592 340.252V340.817H371.329V339.542H375.656C375.656 339.246 375.591 338.984 375.463 338.755C375.334 338.527 375.155 338.348 374.927 338.219C374.701 338.087 374.439 338.021 374.139 338.021C373.827 338.021 373.55 338.093 373.309 338.238C373.07 338.38 372.884 338.572 372.748 338.813C372.613 339.051 372.544 339.317 372.541 339.61V340.822C372.541 341.189 372.608 341.506 372.744 341.774C372.882 342.041 373.077 342.247 373.328 342.392C373.579 342.537 373.877 342.609 374.221 342.609C374.45 342.609 374.659 342.577 374.849 342.512C375.039 342.448 375.202 342.352 375.337 342.223C375.472 342.094 375.575 341.936 375.646 341.749L377.549 341.875C377.452 342.332 377.254 342.731 376.955 343.073C376.659 343.411 376.276 343.675 375.806 343.865C375.339 344.052 374.799 344.145 374.188 344.145ZM378.935 344V336.582H380.992V344H378.935ZM379.969 335.626C379.663 335.626 379.4 335.524 379.181 335.321C378.966 335.115 378.858 334.869 378.858 334.582C378.858 334.299 378.966 334.056 379.181 333.853C379.4 333.647 379.663 333.544 379.969 333.544C380.274 333.544 380.535 333.647 380.751 333.853C380.97 334.056 381.079 334.299 381.079 334.582C381.079 334.869 380.97 335.115 380.751 335.321C380.535 335.524 380.274 335.626 379.969 335.626ZM389.556 336.582L386.963 344H384.645L382.051 336.582H384.225L385.765 341.889H385.843L387.378 336.582H389.556ZM393.751 344.145C392.988 344.145 392.331 343.99 391.78 343.681C391.233 343.369 390.811 342.928 390.515 342.358C390.219 341.785 390.071 341.107 390.071 340.325C390.071 339.562 390.219 338.892 390.515 338.316C390.811 337.739 391.228 337.29 391.766 336.968C392.307 336.646 392.941 336.485 393.669 336.485C394.158 336.485 394.614 336.564 395.036 336.722C395.461 336.876 395.831 337.11 396.146 337.422C396.465 337.734 396.713 338.127 396.89 338.601C397.067 339.071 397.156 339.621 397.156 340.252V340.817H390.892V339.542H395.219C395.219 339.246 395.155 338.984 395.026 338.755C394.897 338.527 394.718 338.348 394.49 338.219C394.264 338.087 394.002 338.021 393.703 338.021C393.39 338.021 393.113 338.093 392.872 338.238C392.634 338.38 392.447 338.572 392.312 338.813C392.176 339.051 392.107 339.317 392.104 339.61V340.822C392.104 341.189 392.172 341.506 392.307 341.774C392.445 342.041 392.64 342.247 392.891 342.392C393.142 342.537 393.44 342.609 393.785 342.609C394.013 342.609 394.223 342.577 394.413 342.512C394.603 342.448 394.765 342.352 394.9 342.223C395.036 342.094 395.139 341.936 395.209 341.749L397.112 341.875C397.016 342.332 396.818 342.731 396.518 343.073C396.222 343.411 395.839 343.675 395.369 343.865C394.902 344.052 394.363 344.145 393.751 344.145Z" fill="white"/>
<rect x="120" y="378.75" width="154" height="56" rx="15" fill="white" fill-opacity="0.05"/>
<rect x="120.5" y="379.25" width="153" height="55" rx="14.5" stroke="white" stroke-opacity="0.1"/>
<path d="M170.139 412.702H183.739V399.102H170.139V412.702ZM193.112 404.704C193.073 404.314 192.907 404.011 192.614 403.796C192.321 403.58 191.924 403.472 191.421 403.472C191.08 403.472 190.792 403.52 190.557 403.617C190.322 403.71 190.141 403.841 190.016 404.008C189.894 404.176 189.832 404.366 189.832 404.578C189.826 404.755 189.863 404.91 189.943 405.042C190.027 405.174 190.141 405.288 190.286 405.385C190.431 405.478 190.599 405.56 190.789 405.631C190.979 405.699 191.181 405.757 191.397 405.805L192.286 406.017C192.717 406.114 193.113 406.243 193.474 406.404C193.834 406.565 194.147 406.763 194.411 406.998C194.675 407.233 194.879 407.51 195.024 407.828C195.172 408.147 195.248 408.513 195.251 408.925C195.248 409.53 195.093 410.055 194.787 410.499C194.485 410.94 194.047 411.283 193.474 411.528C192.904 411.769 192.217 411.89 191.412 411.89C190.613 411.89 189.918 411.768 189.325 411.523C188.736 411.278 188.276 410.916 187.944 410.436C187.616 409.953 187.443 409.356 187.427 408.645H189.451C189.473 408.976 189.568 409.253 189.736 409.475C189.906 409.694 190.133 409.86 190.417 409.973C190.703 410.082 191.027 410.137 191.387 410.137C191.742 410.137 192.049 410.085 192.31 409.982C192.574 409.879 192.778 409.736 192.923 409.553C193.068 409.369 193.141 409.158 193.141 408.92C193.141 408.698 193.075 408.511 192.943 408.36C192.814 408.208 192.624 408.08 192.373 407.973C192.125 407.867 191.821 407.77 191.46 407.684L190.383 407.413C189.549 407.21 188.891 406.893 188.408 406.462C187.925 406.03 187.685 405.449 187.688 404.718C187.685 404.119 187.844 403.596 188.166 403.149C188.491 402.701 188.937 402.352 189.504 402.101C190.071 401.849 190.715 401.724 191.436 401.724C192.17 401.724 192.811 401.849 193.358 402.101C193.908 402.352 194.337 402.701 194.643 403.149C194.948 403.596 195.106 404.114 195.116 404.704H193.112ZM198.082 411.75L196.064 404.332H198.145L199.295 409.316H199.362L200.56 404.332H202.603L203.82 409.287H203.883L205.013 404.332H207.09L205.076 411.75H202.897L201.622 407.085H201.531L200.256 411.75H198.082ZM210.302 411.89C209.829 411.89 209.407 411.808 209.037 411.644C208.667 411.476 208.374 411.23 208.158 410.905C207.946 410.576 207.839 410.168 207.839 409.678C207.839 409.266 207.915 408.92 208.066 408.64C208.218 408.36 208.424 408.134 208.684 407.964C208.945 407.793 209.241 407.664 209.573 407.577C209.908 407.49 210.259 407.429 210.626 407.394C211.057 407.349 211.405 407.307 211.669 407.268C211.933 407.226 212.125 407.165 212.244 407.085C212.363 407.004 212.423 406.885 212.423 406.727V406.698C212.423 406.392 212.326 406.156 212.133 405.988C211.943 405.821 211.672 405.737 211.321 405.737C210.951 405.737 210.657 405.819 210.438 405.984C210.219 406.145 210.074 406.347 210.003 406.592L208.1 406.437C208.197 405.987 208.387 405.597 208.67 405.269C208.953 404.937 209.319 404.683 209.766 404.506C210.217 404.325 210.739 404.235 211.331 404.235C211.743 404.235 212.138 404.284 212.514 404.38C212.894 404.477 213.231 404.626 213.524 404.829C213.82 405.032 214.053 405.293 214.224 405.612C214.395 405.927 214.48 406.305 214.48 406.747V411.75H212.529V410.721H212.471C212.352 410.953 212.192 411.158 211.993 411.335C211.793 411.509 211.553 411.645 211.273 411.745C210.993 411.842 210.669 411.89 210.302 411.89ZM210.892 410.47C211.194 410.47 211.461 410.411 211.693 410.291C211.925 410.169 212.107 410.005 212.239 409.799C212.371 409.593 212.437 409.359 212.437 409.099V408.311C212.373 408.353 212.284 408.392 212.171 408.427C212.062 408.459 211.938 408.49 211.8 408.519C211.661 408.545 211.523 408.569 211.384 408.591C211.246 408.611 211.12 408.629 211.007 408.645C210.766 408.68 210.555 408.736 210.375 408.814C210.195 408.891 210.054 408.996 209.955 409.128C209.855 409.256 209.805 409.417 209.805 409.611C209.805 409.891 209.906 410.105 210.109 410.253C210.315 410.398 210.576 410.47 210.892 410.47ZM216.076 414.532V404.332H218.105V405.578H218.196C218.286 405.378 218.417 405.175 218.587 404.969C218.761 404.76 218.987 404.586 219.264 404.448C219.544 404.306 219.891 404.235 220.307 404.235C220.848 404.235 221.347 404.377 221.804 404.66C222.261 404.94 222.627 405.364 222.9 405.93C223.174 406.494 223.311 407.201 223.311 408.051C223.311 408.878 223.177 409.577 222.91 410.147C222.646 410.713 222.285 411.143 221.828 411.436C221.374 411.726 220.865 411.871 220.302 411.871C219.903 411.871 219.563 411.805 219.283 411.673C219.006 411.541 218.779 411.375 218.602 411.175C218.425 410.972 218.29 410.768 218.196 410.562H218.133V414.532H216.076ZM218.09 408.041C218.09 408.482 218.151 408.867 218.274 409.195C218.396 409.524 218.573 409.78 218.805 409.963C219.037 410.143 219.318 410.234 219.65 410.234C219.985 410.234 220.268 410.142 220.5 409.958C220.732 409.771 220.907 409.514 221.026 409.186C221.149 408.854 221.21 408.472 221.21 408.041C221.21 407.613 221.15 407.236 221.031 406.911C220.912 406.586 220.737 406.331 220.505 406.148C220.273 405.964 219.988 405.872 219.65 405.872C219.315 405.872 219.032 405.961 218.8 406.138C218.571 406.315 218.396 406.566 218.274 406.891C218.151 407.217 218.09 407.6 218.09 408.041Z" fill="white"/>
<rect x="286" y="378.75" width="154" height="56" rx="15" fill="white" fill-opacity="0.05"/>
<rect x="286.5" y="379.25" width="153" height="55" rx="14.5" stroke="white" stroke-opacity="0.1"/>
<path d="M335.714 412.702H349.314V399.102H335.714V412.702ZM358.687 404.704C358.648 404.314 358.482 404.011 358.189 403.796C357.896 403.58 357.499 403.472 356.996 403.472C356.655 403.472 356.367 403.52 356.132 403.617C355.897 403.71 355.716 403.841 355.591 404.008C355.469 404.176 355.407 404.366 355.407 404.578C355.401 404.755 355.438 404.91 355.518 405.042C355.602 405.174 355.716 405.288 355.861 405.385C356.006 405.478 356.174 405.56 356.364 405.631C356.554 405.699 356.756 405.757 356.972 405.805L357.861 406.017C358.292 406.114 358.688 406.243 359.049 406.404C359.409 406.565 359.722 406.763 359.986 406.998C360.25 407.233 360.454 407.51 360.599 407.828C360.747 408.147 360.823 408.513 360.826 408.925C360.823 409.53 360.668 410.055 360.362 410.499C360.06 410.94 359.622 411.283 359.049 411.528C358.479 411.769 357.792 411.89 356.987 411.89C356.188 411.89 355.493 411.768 354.9 411.523C354.311 411.278 353.851 410.916 353.519 410.436C353.191 409.953 353.018 409.356 353.002 408.645H355.026C355.048 408.976 355.143 409.253 355.311 409.475C355.481 409.694 355.708 409.86 355.992 409.973C356.278 410.082 356.602 410.137 356.962 410.137C357.317 410.137 357.624 410.085 357.885 409.982C358.149 409.879 358.353 409.736 358.498 409.553C358.643 409.369 358.716 409.158 358.716 408.92C358.716 408.698 358.65 408.511 358.518 408.36C358.389 408.208 358.199 408.08 357.948 407.973C357.7 407.867 357.396 407.77 357.035 407.684L355.958 407.413C355.124 407.21 354.466 406.893 353.983 406.462C353.5 406.03 353.26 405.449 353.263 404.718C353.26 404.119 353.419 403.596 353.741 403.149C354.066 402.701 354.512 402.352 355.079 402.101C355.646 401.849 356.29 401.724 357.011 401.724C357.745 401.724 358.386 401.849 358.933 402.101C359.483 402.352 359.912 402.701 360.218 403.149C360.523 403.596 360.681 404.114 360.691 404.704H358.687ZM366.14 404.332V405.877H361.672V404.332H366.14ZM362.687 402.555H364.744V409.47C364.744 409.66 364.773 409.809 364.831 409.915C364.889 410.018 364.969 410.09 365.072 410.132C365.179 410.174 365.301 410.195 365.44 410.195C365.536 410.195 365.633 410.187 365.729 410.171C365.826 410.151 365.9 410.137 365.951 410.127L366.275 411.658C366.172 411.69 366.027 411.727 365.84 411.769C365.654 411.814 365.427 411.842 365.159 411.851C364.664 411.871 364.229 411.805 363.855 411.653C363.485 411.502 363.197 411.267 362.991 410.948C362.785 410.63 362.683 410.227 362.687 409.741V402.555ZM369.595 411.89C369.122 411.89 368.7 411.808 368.33 411.644C367.96 411.476 367.667 411.23 367.451 410.905C367.239 410.576 367.132 410.168 367.132 409.678C367.132 409.266 367.208 408.92 367.359 408.64C367.511 408.36 367.717 408.134 367.977 407.964C368.238 407.793 368.534 407.664 368.866 407.577C369.201 407.49 369.552 407.429 369.919 407.394C370.35 407.349 370.698 407.307 370.962 407.268C371.226 407.226 371.418 407.165 371.537 407.085C371.656 407.004 371.716 406.885 371.716 406.727V406.698C371.716 406.392 371.619 406.156 371.426 405.988C371.236 405.821 370.965 405.737 370.614 405.737C370.244 405.737 369.95 405.819 369.731 405.984C369.512 406.145 369.367 406.347 369.296 406.592L367.393 406.437C367.49 405.987 367.68 405.597 367.963 405.269C368.246 404.937 368.612 404.683 369.059 404.506C369.51 404.325 370.032 404.235 370.624 404.235C371.036 404.235 371.431 404.284 371.807 404.38C372.187 404.477 372.524 404.626 372.817 404.829C373.113 405.032 373.346 405.293 373.517 405.612C373.688 405.927 373.773 406.305 373.773 406.747V411.75H371.822V410.721H371.764C371.645 410.953 371.485 411.158 371.286 411.335C371.086 411.509 370.846 411.645 370.566 411.745C370.286 411.842 369.962 411.89 369.595 411.89ZM370.185 410.47C370.487 410.47 370.754 410.411 370.986 410.291C371.218 410.169 371.4 410.005 371.532 409.799C371.664 409.593 371.73 409.359 371.73 409.099V408.311C371.666 408.353 371.577 408.392 371.464 408.427C371.355 408.459 371.231 408.49 371.093 408.519C370.954 408.545 370.816 408.569 370.677 408.591C370.539 408.611 370.413 408.629 370.3 408.645C370.059 408.68 369.848 408.736 369.668 408.814C369.487 408.891 369.347 408.996 369.248 409.128C369.148 409.256 369.098 409.417 369.098 409.611C369.098 409.891 369.199 410.105 369.402 410.253C369.608 410.398 369.869 410.47 370.185 410.47ZM377.233 409.615L377.238 407.147H377.538L379.914 404.332H382.275L379.083 408.06H378.595L377.233 409.615ZM375.369 411.75V401.859H377.426V411.75H375.369ZM380.005 411.75L377.822 408.519L379.194 407.065L382.415 411.75H380.005ZM386.36 411.895C385.597 411.895 384.94 411.74 384.389 411.431C383.842 411.119 383.42 410.678 383.124 410.108C382.828 409.535 382.68 408.857 382.68 408.075C382.68 407.312 382.828 406.642 383.124 406.066C383.42 405.489 383.837 405.04 384.375 404.718C384.916 404.396 385.55 404.235 386.278 404.235C386.767 404.235 387.223 404.314 387.645 404.472C388.07 404.626 388.44 404.86 388.755 405.172C389.074 405.484 389.322 405.877 389.499 406.351C389.676 406.821 389.765 407.371 389.765 408.002V408.567H383.501V407.292H387.828C387.828 406.996 387.764 406.734 387.635 406.505C387.506 406.277 387.327 406.098 387.099 405.969C386.873 405.837 386.611 405.771 386.312 405.771C385.999 405.771 385.722 405.843 385.481 405.988C385.243 406.13 385.056 406.322 384.921 406.563C384.785 406.801 384.716 407.067 384.713 407.36V408.572C384.713 408.939 384.781 409.256 384.916 409.524C385.054 409.791 385.249 409.997 385.5 410.142C385.751 410.287 386.049 410.359 386.394 410.359C386.622 410.359 386.832 410.327 387.022 410.262C387.212 410.198 387.374 410.102 387.509 409.973C387.645 409.844 387.748 409.686 387.818 409.499L389.721 409.625C389.625 410.082 389.427 410.481 389.127 410.823C388.831 411.161 388.448 411.425 387.978 411.615C387.511 411.802 386.972 411.895 386.36 411.895Z" fill="white"/>
</g>
<defs>
<filter id="filter0_d_12_452" x="0" y="0" width="559.533" height="845.39" filterUnits="userSpaceOnUse" color-interpolation-filters="sRGB">
<feFlood flood-opacity="0" result="BackgroundImageFix"/>
<feColorMatrix in="SourceAlpha" type="matrix" values="0 0 0 0 0 0 0 0 0 0 0 0 0 0 0 0 0 0 127 0" result="hardAlpha"/>
<feOffset dy="30"/>
<feGaussianBlur stdDeviation="40"/>
<feComposite in2="hardAlpha" operator="out"/>
<feColorMatrix type="matrix" values="0 0 0 0 0 0 0 0 0 0.74902 0 0 0 0 0.388235 0 0 0 0.3 0"/>
<feBlend mode="normal" in2="BackgroundImageFix" result="effect1_dropShadow_12_452"/>
<feBlend mode="normal" in="SourceGraphic" in2="effect1_dropShadow_12_452" result="shape"/>
</filter>
<linearGradient id="paint0_linear_12_452" x1="8.52851" y1="121.468" x2="550.982" y2="663.945" gradientUnits="userSpaceOnUse">
<stop stop-color="#00BF63"/>
<stop offset="1" stop-color="#00FF87"/>
</linearGradient>
<linearGradient id="paint1_linear_12_452" x1="167.169" y1="111.664" x2="378.436" y2="336.428" gradientUnits="userSpaceOnUse">
<stop stop-color="#00BF63" stop-opacity="0.2"/>
<stop offset="1" stop-color="#00D9B5" stop-opacity="0.2"/>
</linearGradient>
</defs>
</svg>
